<?xml version="1.0" standalone="no"?>
<!DOCTYPE svg PUBLIC "-//W3C//DTD SVG 20010904//EN"
 "http://www.w3.org/TR/2001/REC-SVG-20010904/DTD/svg10.dtd">
<svg version="1.0" xmlns="http://www.w3.org/2000/svg"
 width="1280.000000pt" height="720.000000pt" viewBox="0 0 1280.000000 720.000000"
 preserveAspectRatio="xMidYMid meet">
<metadata>
Created by potrace 1.16, written by Peter Selinger 2001-2019
</metadata>
<g transform="translate(0.000000,720.000000) scale(0.100000,-0.100000)"
fill="#000000" stroke="none">
<path d="M1710 6185 c0 -215 5 -250 28 -208 9 16 11 16 36 0 35 -23 92 -21
127 3 61 44 68 198 11 255 -32 33 -100 35 -143 4 l-29 -20 0 95 c0 79 -3 96
-15 96 -13 0 -15 -32 -15 -225z m180 18 c19 -24 21 -38 18 -102 -3 -62 -7 -76
-27 -92 -32 -26 -66 -24 -107 7 -33 25 -34 29 -34 94 0 64 2 70 31 94 42 36
90 35 119 -1z"/>
<path d="M817 6373 c-3 -7 77 -296 96 -343 3 -8 7 -24 9 -34 4 -25 34 -44 48
-30 5 5 23 64 40 129 37 146 49 185 59 185 7 0 44 -114 86 -263 13 -49 19 -58
37 -55 21 3 21 3 120 331 13 44 17 72 11 78 -16 16 -30 -10 -57 -111 -43 -155
-48 -173 -61 -210 -9 -23 -15 -30 -18 -20 -3 8 -20 65 -37 125 -59 204 -65
220 -79 220 -10 0 -21 -23 -33 -65 -10 -36 -22 -78 -27 -95 -19 -65 -31 -112
-41 -152 -6 -24 -14 -43 -18 -43 -4 0 -22 59 -41 132 -18 72 -36 139 -41 147
-4 9 -12 29 -16 45 -9 29 -28 44 -37 29z"/>
<path d="M2284 6365 c-149 -66 -153 -329 -5 -391 50 -21 139 -18 179 6 l33 20
-3 88 -3 87 -72 3 c-55 2 -73 0 -73 -10 0 -9 16 -13 52 -13 l53 0 3 -73 c3
-70 2 -72 -23 -82 -72 -27 -155 1 -193 66 -19 33 -22 51 -20 111 4 80 20 111
78 151 46 31 85 28 183 -13 12 -5 17 -3 17 9 0 43 -139 70 -206 41z"/>
<path d="M2784 6361 c-39 -23 -59 -76 -45 -114 14 -35 45 -62 107 -91 57 -27
74 -48 74 -95 0 -61 -80 -90 -155 -54 -37 17 -49 15 -40 -8 9 -23 55 -39 111
-39 46 0 57 4 88 34 30 28 36 40 36 74 0 52 -26 83 -105 125 -33 18 -66 44
-75 60 -13 24 -13 30 0 54 9 15 28 32 43 37 26 10 35 8 100 -19 30 -12 20 28
-10 43 -39 18 -93 15 -129 -7z"/>
<path d="M2602 6168 c3 -173 5 -203 18 -203 13 0 15 29 15 200 0 183 -1 200
-18 203 -16 3 -17 -10 -15 -200z"/>
<path d="M1426 6245 c-40 -30 -56 -68 -56 -133 0 -109 39 -152 137 -152 38 0
67 6 82 16 28 20 14 42 -17 25 -26 -14 -97 -14 -122 -1 -24 13 -54 75 -46 95
4 12 26 15 111 15 104 0 105 0 105 24 0 37 -27 92 -54 110 -31 20 -114 21
-140 1z"/>
<path d="M6478 4443 c-25 -6 -26 -103 -2 -103 14 0 16 8 12 43 l-5 42 234 -3
233 -3 0 -142 0 -143 -172 1 c-155 0 -171 -2 -174 -17 -2 -17 12 -18 182 -18
l184 0 -2 173 -3 172 -235 1 c-129 1 -243 -1 -252 -3z"/>
<path d="M6380 4136 c0 -139 2 -155 18 -160 26 -8 112 -5 118 5 3 5 10 9 15 9
6 0 7 -5 3 -11 -4 -7 -1 -10 7 -7 10 3 13 35 11 144 -1 76 -2 147 -2 157 0 15
-11 17 -85 17 l-85 0 0 -154z m60 126 c19 1 50 0 68 -1 l32 -1 0 -60 0 -60
-52 -2 -53 -2 53 -3 c47 -4 52 -6 52 -28 0 -28 -12 -31 -91 -27 l-59 4 0 101
c0 56 4 97 8 91 4 -7 23 -12 42 -12z"/>
<path d="M2514 3950 c-28 -5 -29 -7 -32 -68 -3 -57 -1 -62 18 -62 17 0 20 6
20 51 0 35 -3 48 -12 43 -6 -4 -9 -3 -6 2 4 5 125 8 282 6 l276 -3 0 -162 c0
-90 4 -167 10 -172 6 -7 -54 -9 -163 -7 -95 1 -191 0 -214 -3 -37 -5 -43 -10
-43 -31 l0 -24 225 0 225 0 0 215 c0 118 -3 215 -7 215 -165 4 -557 4 -579 0z"/>
<path d="M2370 3570 l0 -190 115 0 115 0 0 190 0 190 -115 0 -115 0 0 -190z"/>
<path d="M10000 3594 c-52 -22 -77 -51 -100 -111 -19 -51 -20 -77 -20 -566 0
-426 3 -520 15 -561 18 -57 45 -90 97 -117 35 -18 63 -19 424 -19 l387 0 44
25 c27 16 51 42 66 68 l22 42 -2 563 c-3 549 -3 565 -23 601 -12 20 -37 48
-57 61 l-37 25 -390 2 c-333 2 -396 0 -426 -13z m830 -36 c18 -13 43 -36 54
-51 21 -28 21 -39 24 -568 2 -373 -1 -552 -8 -580 -15 -55 -61 -96 -124 -109
-34 -8 -169 -10 -396 -8 -385 3 -382 3 -437 75 l-28 36 0 561 0 561 24 33 c52
74 41 72 472 72 384 0 386 0 419 -22z"/>
<path d="M10300 3334 c-41 -18 -80 -34 -86 -34 -6 0 -23 -11 -38 -25 l-27 -25
3 -156 3 -157 30 -17 c27 -14 65 -31 170 -76 28 -11 38 -9 110 22 120 52 144
64 149 72 4 6 10 256 7 312 -1 18 -10 29 -33 39 -18 7 -46 19 -63 26 -57 25
-136 55 -143 54 -4 0 -41 -16 -82 -35z m162 -100 c93 -53 89 -46 86 -146 l-3
-90 -77 -41 -77 -42 -78 42 -78 42 0 98 c0 97 0 98 27 107 23 8 37 3 100 -35
79 -48 93 -72 59 -103 -22 -20 -41 -14 -41 12 0 14 -85 72 -105 72 -3 0 -5
-22 -5 -49 0 -56 8 -66 72 -100 l44 -24 55 30 c54 29 54 29 57 82 2 30 -2 59
-8 66 -7 8 -41 30 -76 50 -64 36 -75 49 -51 58 24 10 36 7 99 -29z"/>
<path d="M5920 3591 c-71 -22 -129 -70 -161 -133 -18 -35 -19 -66 -19 -545 0
-567 -1 -551 71 -620 72 -68 -25 -63 1397 -66 1285 -2 1287 -2 1332 19 51 23
103 78 125 131 23 54 22 1016 -1 1071 -19 47 -67 97 -119 125 l-40 22 -1280 2
c-704 1 -1291 -2 -1305 -6z m2579 -31 c55 -15 99 -51 128 -105 l28 -50 -1
-495 c-1 -482 -1 -496 -22 -536 -27 -53 -82 -100 -131 -114 -27 -7 -439 -10
-1313 -8 -1405 3 -1298 -2 -1359 65 -67 71 -64 47 -64 598 l0 500 28 47 c29
47 73 83 125 98 40 12 2539 12 2581 0z"/>
<path d="M7703 3178 c-13 -6 -23 -15 -23 -19 0 -5 -6 -6 -13 -3 -7 2 -21 -2
-32 -10 -20 -15 -20 -15 2 -16 29 0 100 -28 136 -53 24 -16 28 -25 24 -51 -4
-24 1 -37 21 -58 23 -26 25 -31 14 -65 -21 -69 1 -65 180 28 10 5 19 5 23 -1
4 -6 11 -8 16 -4 5 3 7 9 4 14 -3 5 0 12 6 16 6 3 15 0 20 -7 6 -10 9 -11 9
-1 0 6 11 12 25 12 14 0 25 4 25 9 0 10 -65 51 -82 51 -5 0 -23 9 -38 20 -16
11 -42 23 -59 26 -17 4 -31 10 -31 15 0 5 -5 9 -10 9 -6 0 -28 11 -51 25 -22
14 -44 23 -49 20 -6 -4 -10 -2 -10 4 0 9 -72 53 -82 50 -2 0 -13 -5 -25 -11z"/>
<path d="M9536 3298 c5 -7 2 -9 -9 -5 -9 3 -18 0 -21 -9 -3 -8 -16 -18 -28
-23 l-23 -9 26 -10 c25 -10 59 -51 59 -72 0 -6 10 -24 22 -40 12 -16 18 -33
15 -37 -13 -12 -97 35 -91 50 8 21 -23 47 -55 47 -16 0 -34 7 -41 15 -30 36
-90 6 -90 -44 0 -19 -5 -31 -13 -31 -22 0 -47 -34 -47 -63 0 -28 32 -57 63
-57 16 0 17 -3 7 -15 -15 -18 -101 -20 -118 -3 -10 10 -14 8 -19 -12 -7 -25
-7 -25 -14 5 l-7 30 -1 -32 c-1 -22 4 -33 17 -36 16 -4 16 -5 0 -6 -12 -1 -18
-9 -18 -24 0 -21 12 -27 115 -60 l114 -36 118 53 118 53 -2 178 c-1 97 -5 181
-10 185 -15 14 -75 21 -67 8z m-38 -208 c28 -13 52 -29 52 -35 0 -6 -24 -23
-53 -37 l-54 -26 -56 25 c-32 14 -57 31 -57 37 1 10 99 66 110 62 3 -1 29 -12
58 -26z"/>
<path d="M2467 2393 c-4 -3 -7 -39 -7 -80 l0 -73 70 0 c65 0 71 2 81 24 6 13
21 27 33 30 11 3 101 6 199 6 170 0 177 1 177 20 0 19 -7 20 -131 20 l-131 0
-11 30 -11 30 -132 0 c-72 0 -134 -3 -137 -7z"/>
<path d="M2647 2215 c-16 -22 -26 -24 -100 -27 l-82 -3 -2 -117 -1 -117 279
-1 279 -1 0 146 0 145 -177 0 c-177 -1 -178 -1 -196 -25z"/>
<path d="M6839 1941 c-26 -4 -54 -13 -63 -20 -15 -12 -14 -15 8 -26 29 -15
151 -31 143 -19 -3 5 19 7 48 6 37 -3 61 1 76 11 l21 15 -24 15 c-27 18 -144
28 -209 18z"/>
<path d="M5978 1933 c6 -2 10 -9 7 -14 -3 -5 -6 -91 -7 -191 l0 -183 255 -3
255 -3 1 200 0 201 -262 -1 c-144 0 -256 -3 -249 -6z m488 -12 c5 -6 8 -80 6
-175 l-3 -166 -239 0 -240 0 0 168 c0 93 3 172 7 175 10 11 458 8 469 -2z"/>
<path d="M8425 1880 c-27 -16 -45 -30 -40 -31 6 0 -1 -4 -15 -8 -14 -4 -24
-13 -22 -20 1 -7 -2 -10 -7 -7 -5 3 -16 3 -25 0 -21 -8 49 -56 82 -56 12 0 21
-3 18 -6 -6 -5 31 -36 55 -44 8 -3 26 3 40 13 20 16 22 20 9 29 -8 5 -10 10
-4 10 5 0 15 -5 21 -11 8 -8 24 -2 59 21 l47 33 -22 19 c-13 10 -35 18 -50 19
-14 0 -20 3 -13 6 8 3 0 12 -20 23 -18 9 -38 15 -44 13 -7 -2 -15 1 -20 8 -5
8 -3 10 6 4 9 -5 11 -4 6 3 -9 15 -2 17 -61 -18z"/>
<path d="M6708 1752 c-58 -34 -59 -34 -63 -68 -3 -31 8 -42 84 -82 32 -17 46
-21 51 -12 4 6 11 11 16 11 5 -1 39 18 76 41 l68 43 -32 16 c-18 9 -39 14 -47
11 -8 -3 -12 -1 -8 5 4 6 -4 14 -18 17 -14 4 -23 10 -20 15 6 11 -24 23 -37
14 -7 -3 -8 -1 -4 5 12 19 -16 12 -66 -16z"/>
<path d="M10837 534 c-5 -5 -32 -9 -96 -13 -19 -1 -21 -4 -11 -16 6 -8 9 -18
7 -22 -3 -5 3 -9 13 -9 10 0 16 6 13 12 -2 7 0 15 6 19 6 3 9 0 6 -7 -7 -19
10 -41 32 -43 10 0 24 -4 30 -8 7 -5 16 1 23 13 9 17 8 20 -11 20 -18 0 -19 2
-9 15 11 13 10 14 -4 9 -9 -3 -16 -1 -16 5 0 7 14 10 38 7 20 -3 46 -5 56 -5
20 -1 20 -1 0 -16 -19 -14 -19 -14 1 -15 15 -1 13 -4 -10 -14 -29 -12 -29 -13
-6 -19 26 -6 67 7 93 30 17 15 18 15 18 -1 0 -14 3 -14 20 -4 11 7 20 15 20
18 0 4 -186 51 -201 50 -3 0 -8 -3 -12 -6z"/>
</g>
</svg>
